<svg width="1024" height="768" xmlns="http://www.w3.org/2000/svg">
 <!-- Created with Method Draw - http://github.com/duopixel/Method-Draw/ -->
 <defs>
  <filter id="svg_2_blur">
   <feGaussianBlur stdDeviation="0"/>
  </filter>
 </defs>
 <g>
  <title>background</title>
  <rect fill="#00bf5f" id="canvas_background" height="770" width="1026" y="-1" x="-1"/>
  <g display="none" id="canvasGrid">
   <rect fill="url(#gridpattern)" stroke-width="0" y="0" x="0" height="100%" width="100%" id="svg_3"/>
  </g>
 </g>
 <g>
  <title>Layer 1</title>
  <rect id="svg_1" height="48" width="1024" y="20.621669" stroke-width="1.5" fill="#504f48"/>
  <rect id="svg_2" height="38" width="876" y="101.024117" x="73.039233" stroke-width="1.5" fill="#f0ca19" filter="url(#svg_2_blur)"/>
  <path id="svg_7" d="m53.901791,110.022186c1.52264,-0.847946 2.978909,-1.825523 4.261799,-2.703003l-38.439209,-0.402786l-5.27254,3.467682l-16.703501,-0.297752c2.09297,-1.57885 4.38574,-3.433548 6.08563,-4.826469l-6.04682,-4.683258l17.82227,0l3.626269,2.926201l39.245462,0l-4.868092,-2.919487c1.50235,-0.920059 3.725769,-2.148056 4.93187,-2.791626l13.198914,7.440826l-13.228882,7.556084l-4.613171,-2.766418l0,0l0,0.000008z" stroke-opacity="null" stroke-width="1.5" stroke="null" fill="#000000"/>
  <text transform="matrix(0.514204, 0, 0, 0.472066, 16.7956, 41.3128)" xml:space="preserve" text-anchor="start" font-family="Helvetica, Arial, sans-serif" font-size="24" id="svg_9" y="121.070179" x="-0.015028" fill-opacity="null" stroke-opacity="null" stroke-width="0" stroke="null" fill="#000000" font-weight="bold">73,6px</text>
  <path transform="rotate(-180, 988, 105.602)" id="svg_10" d="m1006.109985,110.964996c1.450012,-0.960999 2.820007,-2.068993 4.040039,-3.063995l-36.369019,-0.456001l-4.981995,3.931l-15.799011,-0.337997c1.973022,-1.790001 4.143982,-3.891991 5.75,-5.471001l-5.716003,-5.308998l16.859009,0l3.434998,3.316994l37.132019,0l-4.619995,-3.308998c1.419983,-1.043098 3.529968,-2.434998 4.669983,-3.164696l12.48999,8.4347l-12.51001,8.564995l-4.380005,-3.136002l0,0z" fill-opacity="null" stroke-opacity="null" stroke-width="0" stroke="null" fill="#000000"/>
  <text transform="matrix(0.505601, 0, 0, 0.43803, 438.8, 41.386)" xml:space="preserve" text-anchor="start" font-family="Helvetica, Arial, sans-serif" font-size="24" id="svg_11" y="127.282876" x="1046.216222" fill-opacity="null" stroke-opacity="null" stroke-width="0" stroke="null" fill="#000000" font-weight="bold">74,4px</text>
  <text transform="matrix(9.76629, 0, 0, 1, -3081.35, 0)" xml:space="preserve" text-anchor="start" font-family="Helvetica, Arial, sans-serif" font-size="24" id="svg_12" y="109.074997" x="351.5" fill-opacity="null" stroke-opacity="null" stroke-width="0" stroke="null" fill="#000000"/>
  <text transform="matrix(10.7397, 0, 0, 1, -3589.08, 0)" xml:space="preserve" text-anchor="start" font-family="Helvetica, Arial, sans-serif" font-size="24" id="svg_13" y="107.074997" x="368.5" stroke-opacity="null" stroke-width="0" stroke="null" fill="#000000"/>
  <text xml:space="preserve" text-anchor="start" font-family="Helvetica, Arial, sans-serif" font-size="24" id="svg_14" y="127.093054" x="220.5" stroke-opacity="null" stroke-width="0" stroke="null" fill="#000000">876x38px</text>
  <text xml:space="preserve" text-anchor="start" font-family="Helvetica, Arial, sans-serif" font-size="24" id="svg_15" y="126.192151" x="630.5" stroke-opacity="null" stroke-width="0" stroke="null" fill="#000000">rgb (240,202,25)</text>
  <path transform="rotate(-90, 511.999, 83.6326)" id="svg_16" d="m520.547607,87.417374c0.680176,-0.678436 1.328613,-1.460632 1.901978,-2.16275l-17.153717,-0.322083l-2.353638,2.774406l-7.452698,-0.238304c0.934082,-1.263153 1.957672,-2.747017 2.7146,-3.861626l-2.697449,-3.746765l7.953491,0l1.616791,2.340996l17.513367,0l-2.171753,-2.335808c0.671143,-0.736084 1.66217,-1.718452 2.201172,-2.23349l5.889282,5.953217l-5.902405,6.045586l-2.059021,-2.213379l0,0z" stroke-opacity="null" stroke-width="1.5" stroke="null" fill="#000000"/>
  <text xml:space="preserve" text-anchor="start" font-family="Helvetica, Arial, sans-serif" font-size="24" id="svg_18" y="47.291249" x="633.5" stroke-opacity="null" stroke-width="0" stroke="null" fill="#ffffff">rgb (80,79,72)</text>
  <text xml:space="preserve" text-anchor="start" font-family="Helvetica, Arial, sans-serif" font-size="24" id="svg_19" y="48.192151" x="218.5" stroke-width="0" fill="#ffffff">1024x57px</text>
  <path fill="none" stroke-width="1.5" id="svg_6" d="m519.798157,56.431499c1.834839,0 6.370056,0.135532 11.009155,1.834862c5.448303,1.995758 10.14801,3.50882 15.596313,5.504578c4.639099,1.699329 9.244873,1.588474 12.844055,2.752293c4.700806,1.520035 7.418152,1.303162 9.174255,1.834862c3.165955,0.958557 3.508057,2.280968 5.504578,2.752289c0.892944,0.2108 2.752319,1.834854 3.669739,1.834854c1.8349,0 2.752319,0 3.669739,0c1.834839,0 0.917419,0 0,0c-0.917419,0 -2.752319,0 -3.669739,0c-1.834839,0 -2.752258,0 -4.587158,0c-0.917419,0 -1.834839,0 -4.587158,0c-1.834839,0 -2.752258,0 -4.587158,0c-2.752258,0 -4.855835,-25.956745 -3.669678,-0.917419c1.186157,25.039322 -2.752319,0 -3.669739,0c-1.834839,0 -1.904663,-0.56636 -2.752258,-0.917435c-2.3974,-0.993019 -3.289734,-0.53743 -4.587158,-1.834862"/>
  <text fill="none" stroke-width="0" x="576.678833" y="72.945243" id="svg_17" font-size="24" font-family="Helvetica, Arial, sans-serif" text-anchor="start" xml:space="preserve" transform="matrix(4.43701, 0, 0, 1, -2027.92, 0)"/>
  <text fill="#000000" stroke="null" stroke-width="0" stroke-opacity="null" fill-opacity="null" x="524.385302" y="85.475246" id="svg_20" font-size="14" font-family="Helvetica, Arial, sans-serif" text-anchor="start" xml:space="preserve" font-weight="bold">28.8px</text>
  <ellipse fill="#f0ca19" stroke="null" stroke-width="1.5" stroke-opacity="null" fill-opacity="null" cx="66.898552" cy="127.991064" id="svg_21" rx="134.255819"/>
  <path fill="#000000" stroke="null" stroke-width="1.5" stroke-opacity="null" d="m348.940063,175.071869l7.181519,-9.174866l0,4.587555l10.408051,0l0,-4.587555l7.181519,9.174866l-7.181519,9.175537l0,-4.587189l-10.408051,0l0,4.587189l-7.181519,-9.175537z" id="svg_30"/>
  <path fill="#000000" stroke="null" stroke-width="1.5" stroke-opacity="null" d="m649.794495,173.130157l6.915588,-9.174866l0,4.587555l10.022522,0l0,-4.587555l6.915527,9.174866l-6.915527,9.175537l0,-4.587189l-10.022522,0l0,4.587189l-6.915588,-9.175537z" id="svg_32"/>
  <text fill="#000000" stroke="null" stroke-width="0" stroke-opacity="null" x="897.03782" y="203.220352" id="svg_34" font-size="14" font-family="Helvetica, Arial, sans-serif" text-anchor="start" xml:space="preserve" transform="matrix(4.53371, 0, 0, 1, -2399.26, 0)"/>
  <text fill="#000000" stroke="null" stroke-width="0" stroke-opacity="null" x="644.048617" y="221.295195" id="svg_35" font-size="14" font-family="Helvetica, Arial, sans-serif" text-anchor="start" xml:space="preserve" font-weight="bold" transform="rotate(-90, 662.087, 216.358) matrix(1.15824, 0, 0, 1, -102.68, 0)">24px</text>
  <path fill="#000000" stroke="null" stroke-width="1.5" stroke-opacity="null" d="m-204.131027,478.125c0.05304,0.000061 0.103699,0.009247 0.151672,0.024597l-0.037979,0.065674l0.269547,0l-0.067413,-0.11673l-0.067337,-0.116699l-0.035461,0.061493c-0.066437,-0.024292 -0.138077,-0.037872 -0.212982,-0.037872c-0.344772,0 -0.624237,0.279449 -0.624237,0.624237c0,0.143097 0.048676,0.274567 0.129669,0.379913l0.094925,-0.072876c-0.065506,-0.085144 -0.104904,-0.191345 -0.105118,-0.307007c0.000488,-0.278748 0.225998,-0.504303 0.504715,-0.50473l0,0zm0.494644,0.124939l-0.094925,0.072906c0.065491,0.085083 0.104889,0.191254 0.105057,0.306915c-0.000473,0.278748 -0.225998,0.504272 -0.50473,0.50473c-0.049393,-0.000061 -0.096634,-0.008087 -0.141693,-0.021515l0.035736,-0.061798l-0.269531,0l0.067352,0.116669l0.067398,0.116821l0.037582,-0.065216c0.063721,0.022186 0.131927,0.034576 0.203156,0.034607c0.344833,-0.000061 0.624252,-0.279541 0.624329,-0.624329c-0.000076,-0.143097 -0.048782,-0.274536 -0.12973,-0.379791l0,0z" id="svg_38"/>
  <text fill="#000000" stroke="null" stroke-width="0" stroke-opacity="null" fill-opacity="null" x="348.004799" y="257.348742" id="svg_39" font-size="14" font-family="Helvetica, Arial, sans-serif" text-anchor="start" xml:space="preserve" transform="matrix(18.7621, 0, 0, 3.25017, -5895.6, -591.983)"/>
  <text fill="#000000" stroke="null" stroke-width="0" stroke-opacity="null" x="239.981897" y="192.211188" id="svg_41" font-size="14" font-family="Helvetica, Arial, sans-serif" text-anchor="start" xml:space="preserve" transform="matrix(13.4811, 0, 0, 2.16599, -3121.17, -230.796)"/>
  <path id="svg_49" d="m53.901791,110.022186c1.52264,-0.847946 2.978909,-1.825523 4.261799,-2.703003l-38.439209,-0.402786l-5.27254,3.467682l-16.703501,-0.297752c2.09297,-1.57885 4.38574,-3.433548 6.08563,-4.826469l-6.04682,-4.683258l17.82227,0l3.626269,2.926201l39.245462,0l-4.868092,-2.919487c1.50235,-0.920059 3.725769,-2.148056 4.93187,-2.791626l13.198914,7.440826l-13.228882,7.556084l-4.613171,-2.766418l0,0l0,0.000008z" stroke-opacity="null" stroke-width="1.5" stroke="null" fill="#000000"/>
  <text transform="matrix(0.514204, 0, 0, 0.472066, 16.7956, 41.3128)" xml:space="preserve" text-anchor="start" font-family="Helvetica, Arial, sans-serif" font-size="24" id="svg_50" y="121.070179" x="-0.015028" fill-opacity="null" stroke-opacity="null" stroke-width="0" stroke="null" fill="#000000" font-weight="bold">73,6px</text>
  <path id="svg_51" d="m53.901791,388.731567c1.52264,-0.847931 2.978909,-1.825531 4.261799,-2.703003l-38.439209,-0.402771l-5.27254,3.467651l-16.703501,-0.297729c2.09297,-1.578857 4.38574,-3.433533 6.08563,-4.826447l-6.04682,-4.683258l17.82227,0l3.626269,2.926208l39.245462,0l-4.868092,-2.919495c1.50235,-0.920044 3.725769,-2.148071 4.93187,-2.791626l13.198914,7.440826l-13.228882,7.55603l-4.613171,-2.766388l0,0z" stroke-opacity="null" stroke-width="1.5" stroke="null" fill="#000000"/>
  <text transform="matrix(0.514204, 0, 0, 0.472066, 16.7956, 41.3128)" xml:space="preserve" text-anchor="start" font-family="Helvetica, Arial, sans-serif" font-size="24" id="svg_52" y="711.874912" x="-0.015028" fill-opacity="null" stroke-opacity="null" stroke-width="0" stroke="null" fill="#000000" font-weight="bold">73,6px</text>
  <rect fill="#ffffff" stroke="null" stroke-width="1.5" stroke-opacity="null" x="73.739377" y="154.701889" width="276" height="34.56" id="svg_53"/>
  <text fill="#000000" stroke="null" stroke-width="0" stroke-opacity="null" x="142.068548" y="180.64502" id="svg_54" font-size="24" font-family="Helvetica, Arial, sans-serif" text-anchor="start" xml:space="preserve" transform="matrix(0.884013, 0, 0, 0.93612, 12.7082, 10.3234)" font-weight="normal">276 x 34,56px</text>
  <rect fill="#DDDDDD" stroke="null" stroke-width="1.5" stroke-opacity="null" x="72.992962" y="190.078587" width="276" height="205.44" id="svg_55"/>
  <line fill="none" stroke="null" stroke-width="1.5" stroke-opacity="null" x1="74.67481" y1="181.816929" x2="347.400202" y2="383.114243" id="svg_57" stroke-linejoin="null" stroke-linecap="null"/>
  <line fill="none" stroke="null" stroke-width="1.5" stroke-opacity="null" x1="103.895387" y1="206.492084" x2="244.154161" y2="294.153817" id="svg_58" stroke-linejoin="null" stroke-linecap="null"/>
  <rect fill="#f8f5e3" stroke="null" stroke-width="1.5" stroke-opacity="null" x="72.916743" y="395.566866" width="276" height="34.56" id="svg_59"/>
  <rect fill="#f8f5e3" stroke="null" stroke-width="1.5" stroke-opacity="null" x="72.957255" y="430.288463" width="276" height="122.88" id="svg_60" fill-opacity="0.6"/>
  <rect fill="#cb0727" stroke="null" stroke-width="1.5" stroke-opacity="null" x="72.973007" y="553.01489" width="276" height="48" id="svg_61"/>
  <rect fill="#ffffff" stroke="null" stroke-width="1.5" stroke-opacity="null" x="71.884674" y="615.475304" width="276" height="34.56" id="svg_63"/>
  <rect fill="#999999" stroke="null" stroke-width="1.5" stroke-opacity="null" x="72" y="651.049965" width="276" height="115.2" id="svg_64"/>
  <text xml:space="preserve" text-anchor="start" font-family="Helvetica, Arial, sans-serif" font-size="24" id="svg_69" y="766.191662" x="1155.445911" fill-opacity="null" stroke-opacity="null" stroke-width="0" stroke="null" fill="#000000" font-weight="bold">73,6px</text>
  <rect fill="#ffffff" stroke="null" stroke-width="1.5" stroke-opacity="null" x="373.833103" y="154.701889" width="276" height="34.56" id="svg_70"/>
  <rect fill="#DDDDDD" stroke="null" stroke-width="1.5" stroke-opacity="null" x="374.833115" y="190.078588" width="276" height="205.44" id="svg_72"/>
  <line fill="none" stroke="null" stroke-width="1.5" stroke-opacity="null" x1="495.128804" y1="207.458018" x2="767.854197" y2="408.755332" id="svg_73" stroke-linejoin="null" stroke-linecap="null"/>
  <line fill="none" stroke="null" stroke-width="1.5" stroke-opacity="null" x1="561.362108" y1="232.133173" x2="701.620881" y2="319.794906" id="svg_74" stroke-linejoin="null" stroke-linecap="null"/>
  <rect fill="#f8f5e3" stroke="null" stroke-width="1.5" stroke-opacity="null" x="373.833113" y="395.566867" width="276" height="34.56" id="svg_75"/>
  <rect fill="#f8f5e3" stroke="null" stroke-width="1.5" stroke-opacity="null" x="377.833113" y="427.288464" width="276" height="122.88" id="svg_76" fill-opacity="0.6"/>
  <rect fill="#cb0727" stroke="null" stroke-width="1.5" stroke-opacity="null" x="373.833118" y="553.014891" width="276" height="48" id="svg_77"/>
  <text fill="#000000" stroke="null" stroke-width="0" stroke-opacity="null" x="472.119517" y="179.60792" id="svg_81" font-size="24" font-family="Helvetica, Arial, sans-serif" text-anchor="start" xml:space="preserve" transform="matrix(0.884013, 0, 0, 0.93612, 12.7082, 10.3234)" font-weight="normal">rgb(248,245,228)</text>
  <rect fill="#DDDDDD" stroke="null" stroke-width="1.5" stroke-opacity="null" x="675.543272" y="189.223883" width="276" height="205.44" id="svg_82"/>
  <rect fill="#f8f5e3" stroke="null" stroke-width="1.5" stroke-opacity="null" x="675.54327" y="394.712161" width="276" height="34.56" id="svg_83"/>
  <rect fill="#f8f5e3" stroke="null" stroke-width="1.5" stroke-opacity="null" x="675.54327" y="429.433758" width="276" height="122.88" id="svg_84" fill-opacity="0.6"/>
  <rect fill="#cb0727" stroke="null" stroke-width="1.5" stroke-opacity="null" x="675.543275" y="552.160185" width="276" height="48" id="svg_85"/>
  <rect fill="#ffffff" stroke="null" stroke-width="1.5" stroke-opacity="null" x="676.397944" y="154.701889" width="276" height="34.56" id="svg_86"/>
  <text fill="#000000" stroke="null" stroke-width="0" stroke-opacity="null" x="827.119857" y="179.60792" id="svg_87" font-size="24" font-family="Helvetica, Arial, sans-serif" text-anchor="start" xml:space="preserve" transform="matrix(0.884013, 0, 0, 0.93612, 12.7082, 10.3234)" font-weight="normal">276 x 34,56px</text>
  <text fill="#000000" stroke="null" stroke-width="0" stroke-opacity="null" x="384.296359" y="221.917603" id="svg_89" font-size="14" font-family="Helvetica, Arial, sans-serif" text-anchor="start" xml:space="preserve" font-weight="bold" transform="rotate(-90, 361.231, 216.981) matrix(1.15824, 0, 0, 1, -102.68, 0)">24px</text>
  <rect fill="#ffffff" stroke="null" stroke-width="1.5" stroke-opacity="null" x="375.493682" y="616.344871" width="276" height="34.56" id="svg_90"/>
  <rect fill="#999999" stroke="null" stroke-width="1.5" stroke-opacity="null" x="378.609009" y="650.919531" width="276" height="115.2" id="svg_91"/>
  <rect fill="#ffffff" stroke="null" stroke-width="1.5" stroke-opacity="null" x="679.943109" y="615.692701" width="276" height="34.56" id="svg_92"/>
  <rect fill="#999999" stroke="null" stroke-width="1.5" stroke-opacity="null" x="679.087585" y="651.267362" width="276" height="115.2" id="svg_93"/>
  <text fill="#000000" stroke="null" stroke-width="0" stroke-opacity="null" x="486.956063" y="674.304636" id="svg_96" font-size="24" font-family="Helvetica, Arial, sans-serif" text-anchor="start" xml:space="preserve" transform="matrix(0.884013, 0, 0, 0.93612, 12.7082, 10.3234)" font-weight="normal">276 x 34,56px</text>
  <text fill="#000000" stroke="null" stroke-width="0" stroke-opacity="null" x="826.309302" y="676.378862" id="svg_97" font-size="24" font-family="Helvetica, Arial, sans-serif" text-anchor="start" xml:space="preserve" transform="matrix(0.884013, 0, 0, 0.93612, 12.7082, 10.3234)" font-weight="normal">276 x 34,56px</text>
  <text fill="#000000" stroke="null" stroke-width="0" stroke-opacity="null" x="445.947444" y="528.07355" id="svg_99" font-size="24" font-family="Helvetica, Arial, sans-serif" text-anchor="start" xml:space="preserve" transform="matrix(0.884013, 0, 0, 0.93612, 12.7082, 10.3234)" font-weight="normal">rgb(248,245,227,0,60)</text>
  <text fill="#000000" stroke="null" stroke-width="0" stroke-opacity="null" x="472.632917" y="438.882944" id="svg_100" font-size="24" font-family="Helvetica, Arial, sans-serif" text-anchor="start" xml:space="preserve" transform="matrix(0.884013, 0, 0, 0.93612, 12.7082, 10.3234)" font-weight="normal">rgb(248,245,228)</text>
  <text fill="#000000" stroke="null" stroke-width="0" stroke-opacity="null" x="492.653711" y="614.152857" id="svg_101" font-size="24" font-family="Helvetica, Arial, sans-serif" text-anchor="start" xml:space="preserve" transform="matrix(0.884013, 0, 0, 0.93612, 12.7082, 10.3234)" font-weight="normal">rgb(203,7,39)</text>
  <path fill="#000000" stroke="null" stroke-width="1.5" stroke-opacity="null" d="m650.76532,643.021606l6.915588,-9.174866l0,4.587585l10.022522,0l0,-4.587585l6.915527,9.174866l-6.915527,9.175537l0,-4.587158l-10.022522,0l0,4.587158l-6.915588,-9.175537z" id="svg_102"/>
  <text fill="#000000" stroke="null" stroke-width="0" stroke-opacity="null" x="644.886829" y="687.303262" id="svg_103" font-size="14" font-family="Helvetica, Arial, sans-serif" text-anchor="start" xml:space="preserve" font-weight="bold" transform="rotate(-90, 663.056, 682.364) matrix(1.15824, 0, 0, 1, -102.68, 0)">24px</text>
  <path fill="#000000" stroke="null" stroke-width="1.5" stroke-opacity="null" d="m347.860077,639.138184l6.915588,-9.174866l0,4.587585l10.022522,0l0,-4.587585l6.915527,9.174866l-6.915527,9.175537l0,-4.587158l-10.022522,0l0,4.587158l-6.915588,-9.175537z" id="svg_104"/>
  <text fill="#000000" stroke="null" stroke-width="0" stroke-opacity="null" x="383.364811" y="683.419862" id="svg_105" font-size="14" font-family="Helvetica, Arial, sans-serif" text-anchor="start" xml:space="preserve" font-weight="bold" transform="rotate(-90, 360.159, 678.484) matrix(1.15824, 0, 0, 1, -102.68, 0)">24px</text>
  <path fill="#f8f5e3" stroke="null" stroke-width="1.5" stroke-opacity="null" d="m26.68784,523.309204c0.05303,0.000061 0.103691,0.009277 0.15167,0.024597l-0.03797,0.065674l0.269529,0l-0.0674,-0.11676l-0.06735,-0.116638l-0.03545,0.061462c-0.066439,-0.024292 -0.138069,-0.037903 -0.21298,-0.037903c-0.34478,0 -0.624239,0.27948 -0.624239,0.624268c0,0.143127 0.04867,0.274597 0.129669,0.379883l0.094921,-0.072876c-0.06551,-0.085083 -0.1049,-0.191345 -0.10511,-0.306946c0.000481,-0.278748 0.226,-0.504333 0.504709,-0.504761l0,0zm0.49464,0.124939l-0.094919,0.072876c0.0655,0.085144 0.104879,0.191284 0.105059,0.306946c-0.000479,0.278748 -0.226,0.504272 -0.50473,0.504761c-0.049389,-0.000061 -0.096649,-0.008118 -0.141689,-0.021545l0.03573,-0.061768l-0.269529,0l0.067348,0.116638l0.0674,0.116821l0.037571,-0.065186c0.06373,0.022156 0.131939,0.034546 0.203169,0.034607c0.344831,-0.000122 0.624241,-0.279541 0.624321,-0.624329c-0.00008,-0.143127 -0.04878,-0.274536 -0.12973,-0.379822l0,0z" id="svg_106"/>
  <path transform="rotate(-180, 988, 106.573)" id="svg_107" d="m984.756042,392.511871c1.444092,-0.96109 2.819824,-2.069 4.033203,-3.063812l-36.367188,-0.456543l-4.981689,3.930725l-15.799561,-0.337463c1.973877,-1.789612 4.144287,-3.89209 5.750732,-5.471069l-5.716553,-5.308899l16.859131,0l3.435059,3.316956l37.127686,0l-4.614258,-3.309174c1.418457,-1.04306 3.529053,-2.434998 4.665527,-3.164703l12.492676,8.434692l-12.509766,8.56543l-4.375,-3.136139l0,0z" fill-opacity="null" stroke-opacity="null" stroke-width="0" stroke="null" fill="#000000"/>
  <path transform="rotate(-180, 988, 393.944)" id="svg_108" d="m1006.109985,399.307495c1.450012,-0.960999 2.820007,-2.069 4.040039,-3.063995l-36.369019,-0.455994l-4.981995,3.931l-15.799011,-0.338013c1.973022,-1.790009 4.143982,-3.891998 5.75,-5.470978l-5.716003,-5.309021l16.859009,0l3.434998,3.317017l37.132019,0l-4.619995,-3.309021c1.419983,-1.043091 3.529968,-2.434998 4.669983,-3.164673l12.48999,8.434692l-12.51001,8.565002l-4.380005,-3.136017l0,0z" fill-opacity="null" stroke-opacity="null" stroke-width="0" stroke="null" fill="#000000"/>
  <text transform="matrix(0.505601, 0, 0, 0.43803, 438.8, 41.386)" xml:space="preserve" text-anchor="start" font-family="Helvetica, Arial, sans-serif" font-size="24" id="svg_109" y="774.471964" x="1050.056603" fill-opacity="null" stroke-opacity="null" stroke-width="0" stroke="null" fill="#000000" font-weight="bold">74,4px</text>
  <text xml:space="preserve" text-anchor="start" font-family="Helvetica, Arial, sans-serif" font-size="24" id="svg_8" y="422.449997" x="141.991669" fill-opacity="null" stroke-opacity="null" stroke-width="0" stroke="null" fill="#000000">276 x 34.56 px</text>
  <text style="cursor: move;" xml:space="preserve" text-anchor="start" font-family="Helvetica, Arial, sans-serif" font-size="24" id="svg_24" y="495.449997" x="141.991669" fill-opacity="null" stroke-opacity="null" stroke-width="0" stroke="null" fill="#000000">276 x 122.88px</text>
  <text xml:space="preserve" text-anchor="start" font-family="Helvetica, Arial, sans-serif" font-size="24" id="svg_25" y="495.449997" x="141.991669" fill-opacity="null" stroke-opacity="null" stroke-width="0" stroke="null" fill="#000000">276 x 122.88px</text>
  <text xml:space="preserve" text-anchor="start" font-family="Helvetica, Arial, sans-serif" font-size="24" id="svg_26" y="585.449997" x="142.991669" fill-opacity="null" stroke-opacity="null" stroke-width="0" stroke="null" fill="#000000">276 x 48px</text>
  <text style="cursor: move;" xml:space="preserve" text-anchor="start" font-family="Helvetica, Arial, sans-serif" font-size="24" id="svg_27" y="640.449997" x="142.991669" fill-opacity="null" stroke-opacity="null" stroke-width="0" stroke="null" fill="#000000">276 x 34,56px</text>
  <text xml:space="preserve" text-anchor="start" font-family="Helvetica, Arial, sans-serif" font-size="24" id="svg_28" y="708.449997" x="142.991669" fill-opacity="null" stroke-opacity="null" stroke-width="0" stroke="null" fill="#000000">276 x 34,56px</text>
  <text fill="#000000" stroke="null" stroke-width="0" stroke-opacity="null" x="142.068548" y="292.810125" id="svg_29" font-size="24" font-family="Helvetica, Arial, sans-serif" text-anchor="start" xml:space="preserve" transform="matrix(0.884013, 0, 0, 0.93612, 12.7082, 10.3234)" font-weight="normal">276 x 204.48px</text>
 </g>
</svg>