<svg width="1024" height="768" xmlns="http://www.w3.org/2000/svg">
 <!-- Created with Method Draw - http://github.com/duopixel/Method-Draw/ -->
 <defs>
  <linearGradient id="svg_47" x1="0" y1="0" x2="1" y2="0">
   <stop stop-color="#e9c20c" offset="0"/>
   <stop stop-color="#f6e31b" stop-opacity="0.898438" offset="0.710938"/>
   <stop stop-color="#e9c20b" stop-opacity="0.417969" offset="1"/>
  </linearGradient>
 </defs>
 <g>
  <title>background</title>
  <rect x="-1" y="-1" width="1026" height="770" id="canvas_background" fill="#137241"/>
  <g id="canvasGrid" display="none">
   <rect id="svg_1" width="100%" height="100%" x="0" y="0" stroke-width="0" fill="url(#gridpattern)"/>
  </g>
 </g>
 <g>
  <title>Layer 1</title>
  <rect fill="#fffbfb" stroke="#000" stroke-width="0" x="0" y="0.75" width="1024" height="19.2" id="svg_3"/>
  <rect fill="#504f48" stroke="#000" stroke-width="0" stroke-opacity="null" x="0" y="7.3331" width="1024" height="56" id="svg_4"/>
  <text fill="#000000" stroke="#000" stroke-width="0" stroke-opacity="null" x="30.66935" y="49.895029" id="svg_6" font-size="35" font-family="Helvetica, Arial, sans-serif" text-anchor="start" xml:space="preserve">Header 1024 x 57px      rgb(80,79,72)</text>
  <rect fill="#f8f5e3" stroke="#000" stroke-width="0" stroke-opacity="null" x="23.999996" y="104.644118" width="976" height="199.68" id="svg_8" fill-opacity="0.6"/>
  <text fill="#000000" stroke="#000" stroke-width="0" stroke-opacity="null" x="31.097403" y="162.191051" id="svg_9" font-size="35" font-family="Helvetica, Arial, sans-serif" text-anchor="start" xml:space="preserve">976 x 199.68px      rgb(248,245,227,0.6)</text>
  <text fill="#000000" stroke="#000" stroke-width="0" stroke-opacity="null" x="30.666714" y="249.932925" id="svg_10" font-size="35" font-family="Helvetica, Arial, sans-serif" text-anchor="start" xml:space="preserve">Font: Oswald-Light Size: 18pt Align: Justify rgb(0,0,0)</text>
  <rect fill="#f8f5e3" stroke="#000" stroke-width="0" stroke-opacity="null" fill-opacity="0.8" x="23.999997" y="346.60137" width="976" height="63.36" id="svg_12"/>
  <rect fill="#f8f5e3" stroke="#000" stroke-width="0" stroke-opacity="null" fill-opacity="0.8" x="23.999997" y="452.269629" width="976" height="64.7" id="svg_14"/>
  <rect fill="#f8f5e3" stroke="#000" stroke-width="0" stroke-opacity="null" fill-opacity="0.8" x="24" y="556.132477" width="976" height="64.7" id="svg_16"/>
  <rect fill="#f8f5e3" stroke="#000" stroke-width="0" stroke-opacity="null" fill-opacity="0.8" x="23.999997" y="660.092422" width="976" height="63.36" id="svg_19"/>
  <rect fill="url(#svg_47)" stroke="#000" stroke-width="0" stroke-opacity="null" x="24" y="304.293469" width="976" height="8" id="svg_21"/>
  <text fill="#000000" stroke="#000" stroke-width="0" stroke-opacity="null" x="31.067802" y="391.466302" id="svg_23" font-size="35" font-family="Helvetica, Arial, sans-serif" text-anchor="start" xml:space="preserve">976 x 63.36px      rgb(248,245,227,0.8)</text>
  <text fill="#000000" stroke="#000" stroke-width="0" stroke-opacity="null" x="31.067802" y="496.695951" id="svg_24" font-size="35" font-family="Helvetica, Arial, sans-serif" text-anchor="start" xml:space="preserve">976 x 64.7px      rgb(248,245,227,0.8)</text>
  <text fill="#000000" stroke="#000" stroke-width="0" stroke-opacity="null" x="31.067802" y="598.919039" id="svg_25" font-size="35" font-family="Helvetica, Arial, sans-serif" text-anchor="start" xml:space="preserve">976 x 64.89px      rgb(248,245,227,0.8)</text>
  <text fill="#000000" stroke="#000" stroke-width="0" stroke-opacity="null" x="31.067802" y="706.153062" id="svg_26" font-size="35" font-family="Helvetica, Arial, sans-serif" text-anchor="start" xml:space="preserve">976 x 63.36px      rgb(248,245,227,0.8)</text>
  <path fill="#000000" stroke="#000" stroke-width="0" stroke-opacity="null" d="m17.844751,205.949783c0.483839,-0.30217 0.946579,-0.650589 1.354214,-0.963379l-12.214268,-0.143433l-1.67538,1.235886l-5.307634,-0.106064c0.665053,-0.562698 1.393594,-1.223877 1.933743,-1.720291l-1.921408,-1.669083l5.663125,0l1.152267,1.042908l12.470479,0l-1.546871,-1.040558c0.477385,-0.327896 1.183889,-0.765564 1.567135,-0.994919l4.194033,2.651993l-4.203571,2.693161l-1.46586,-0.986221l0,0l-0.000002,0z" id="svg_27"/>
  <text fill="#000000" stroke="#000" stroke-width="0" stroke-opacity="null" fill-opacity="null" x="25.65171" y="189.610947" id="svg_28" font-size="35" font-family="Helvetica, Arial, sans-serif" text-anchor="start" xml:space="preserve"/>
  <text fill="#000000" stroke="#000" stroke-width="0" stroke-opacity="null" x="3.542159" y="236.764795" id="svg_29" font-size="35" font-family="Helvetica, Arial, sans-serif" text-anchor="start" xml:space="preserve" transform="rotate(89.5408, 12.0267, 236.717) matrix(0.55934, 0, 0, 0.812309, -11.3763, 54.2996)">24px</text>
  <path fill="#000000" stroke="#000" stroke-width="0" stroke-opacity="null" d="m1018.330872,205.949783c0.483826,-0.30217 0.946594,-0.650589 1.354187,-0.963379l-12.214233,-0.143433l-1.675415,1.235886l-5.307617,-0.106064c0.665039,-0.562698 1.393616,-1.223877 1.933777,-1.720291l-1.921448,-1.669083l5.663147,0l1.152283,1.042908l12.470459,0l-1.546875,-1.040558c0.477417,-0.327896 1.183899,-0.765564 1.567139,-0.994919l4.19397,2.651993l-4.203491,2.693161l-1.465881,-0.986221l0,0z" id="svg_30" transform="rotate(-180, 1012.24, 204.264)"/>
  <text fill="#000000" stroke="#000" stroke-width="0" stroke-opacity="null" x="1789.345345" y="235.531585" id="svg_31" font-size="35" font-family="Helvetica, Arial, sans-serif" text-anchor="start" xml:space="preserve" transform="rotate(-90.4097, 1010.93, 235.692) matrix(0.55934, 0, 0, 0.812309, -11.3763, 54.2996)">24px</text>
  <path fill="#000000" stroke="#000" stroke-width="0" stroke-opacity="null" d="m518.079102,745.90509c0.483887,-0.302185 0.946594,-0.650574 1.354248,-0.963379l-12.214264,-0.143433l-1.675385,1.235901l-5.307648,-0.106079c0.66507,-0.562683 1.393585,-1.223877 1.933746,-1.720276l-1.921417,-1.669067l5.663147,0l1.152252,1.042908l12.470459,0l-1.546875,-1.040588c0.477417,-0.327881 1.183899,-0.765564 1.567139,-0.994934l4.194031,2.652039l-4.203552,2.693176l-1.465881,-0.986267l0,0z" id="svg_32" transform="rotate(-89.9329, 511.992, 744.219)"/>
  <text fill="#000000" stroke="#000" stroke-width="0" stroke-opacity="null" fill-opacity="null" x="522.208778" y="748.548602" id="svg_33" font-size="35" font-family="Helvetica, Arial, sans-serif" text-anchor="start" xml:space="preserve" transform="matrix(0.768742, 0, 0, 0.697398, 124.08, 231.959)">30,72px</text>
  <path fill="#000000" stroke="#000" stroke-width="0" stroke-opacity="null" d="m518.079102,641.721008c0.483887,-0.302185 0.946594,-0.650574 1.354248,-0.963379l-12.214264,-0.143433l-1.675385,1.235901l-5.307648,-0.106079c0.66507,-0.562683 1.393585,-1.223877 1.933746,-1.720276l-1.921417,-1.669067l5.663147,0l1.152252,1.042908l12.470459,0l-1.546875,-1.040588c0.477417,-0.327881 1.183899,-0.765564 1.567139,-0.994934l4.194031,2.652039l-4.203552,2.693176l-1.465881,-0.986267l0,0z" id="svg_34" transform="rotate(-89.9329, 511.991, 640.035)"/>
  <text fill="#000000" stroke="#000" stroke-width="0" stroke-opacity="null" fill-opacity="null" x="527.920868" y="647.497438" id="svg_35" font-size="35" font-family="Helvetica, Arial, sans-serif" text-anchor="start" xml:space="preserve" transform="matrix(0.661729, 0, 0, 0.75898, 178.083, 161.009)">39.168px</text>
  <path fill="#000000" stroke="#000" stroke-width="0" stroke-opacity="null" d="m518.079102,537.536926c0.483887,-0.302185 0.946594,-0.650574 1.354248,-0.963379l-12.214264,-0.143433l-1.675385,1.235901l-5.307648,-0.106079c0.66507,-0.562683 1.393585,-1.223877 1.933746,-1.720276l-1.921417,-1.669067l5.663147,0l1.152252,1.042908l12.470459,0l-1.546875,-1.040588c0.477417,-0.327881 1.183899,-0.765564 1.567139,-0.994934l4.194031,2.652039l-4.203552,2.693176l-1.465881,-0.986267l0,0z" id="svg_37" transform="rotate(-89.9329, 511.99, 535.851)"/>
  <path fill="#000000" stroke="#000" stroke-width="0" stroke-opacity="null" d="m518.079102,432.353516c0.483887,-0.302185 0.946594,-0.650543 1.354248,-0.963348l-12.214264,-0.143433l-1.675385,1.23587l-5.307648,-0.106079c0.66507,-0.562653 1.393585,-1.223846 1.933746,-1.720215l-1.921417,-1.669037l5.663147,0l1.152252,1.042877l12.470459,0l-1.546875,-1.040558c0.477417,-0.32785 1.183899,-0.765533 1.567139,-0.994904l4.194031,2.651978l-4.203552,2.693085l-1.465881,-0.986237l0,0z" id="svg_38" transform="rotate(-89.9329, 511.99, 430.667)"/>
  <path fill="#000000" stroke="#000" stroke-width="0" stroke-opacity="null" d="m518.079102,330.176086c0.483887,-0.302185 0.946594,-0.650543 1.354248,-0.963348l-12.214264,-0.143433l-1.675385,1.23587l-5.307648,-0.106079c0.66507,-0.562653 1.393585,-1.223846 1.933746,-1.720215l-1.921417,-1.669037l5.663147,0l1.152252,1.042877l12.470459,0l-1.546875,-1.040558c0.477417,-0.32785 1.183899,-0.765533 1.567139,-0.994904l4.194031,2.651978l-4.203552,2.693085l-1.465881,-0.986237l0,0z" id="svg_39" transform="rotate(-89.9329, 511.99, 328.488)"/>
  <path fill="#000000" stroke="#000" stroke-width="0" stroke-opacity="null" d="m518.079102,85.749382c0.483887,-0.3022 0.946594,-0.650558 1.354248,-0.963356l-12.214264,-0.143448l-1.675385,1.235893l-5.307648,-0.106079c0.66507,-0.562668 1.393585,-1.223869 1.933746,-1.720238l-1.921417,-1.669052l5.663147,0l1.152252,1.042885l12.470459,0l-1.546875,-1.040565c0.477417,-0.32785 1.183899,-0.765541 1.567139,-0.994911l4.194031,2.652l-4.203552,2.693115l-1.465881,-0.986244l0,0z" id="svg_40" transform="rotate(-89.9329, 511.991, 84.0614)"/>
  <text fill="#000000" stroke="#000" stroke-width="0" stroke-opacity="null" fill-opacity="null" x="527.920868" y="507.592267" id="svg_41" font-size="35" font-family="Helvetica, Arial, sans-serif" text-anchor="start" xml:space="preserve" transform="matrix(0.661729, 0, 0, 0.75898, 178.083, 161.009)">39.168px</text>
  <text fill="#000000" stroke="#000" stroke-width="0" stroke-opacity="null" fill-opacity="null" x="527.920868" y="370.326817" id="svg_42" font-size="35" font-family="Helvetica, Arial, sans-serif" text-anchor="start" xml:space="preserve" transform="matrix(0.661729, 0, 0, 0.75898, 178.083, 161.009)">42.62px</text>
  <text fill="#000000" stroke="#000" stroke-width="0" stroke-opacity="null" fill-opacity="null" x="527.920868" y="235.701087" id="svg_43" font-size="35" font-family="Helvetica, Arial, sans-serif" text-anchor="start" xml:space="preserve" transform="matrix(0.661729, 0, 0, 0.75898, 178.083, 161.009)">42.24px</text>
  <text fill="#000000" stroke="#000" stroke-width="0" stroke-opacity="null" fill-opacity="null" x="527.920868" y="-88.984498" id="svg_44" font-size="35" font-family="Helvetica, Arial, sans-serif" text-anchor="start" xml:space="preserve" transform="matrix(0.661729, 0, 0, 0.75898, 178.083, 161.009)">41.28px</text>
 </g>
</svg>