<svg width="1024" height="768" xmlns="http://www.w3.org/2000/svg">
 <!-- Created with Method Draw - http://github.com/duopixel/Method-Draw/ -->
 <defs>
  <linearGradient y2="0" x2="1" y1="0" x1="0" id="svg_47">
   <stop offset="0" stop-color="#e9c20c"/>
   <stop offset="0.710938" stop-opacity="0.898438" stop-color="#f6e31b"/>
   <stop offset="1" stop-opacity="0.417969" stop-color="#e9c20b"/>
  </linearGradient>
 </defs>
 <g>
  <title>background</title>
  <rect fill="#137241" id="canvas_background" height="770" width="1026" y="-1" x="-1"/>
  <g display="none" id="canvasGrid">
   <rect fill="url(#gridpattern)" stroke-width="0" y="0" x="0" height="100%" width="100%" id="svg_1"/>
  </g>
 </g>
 <g>
  <title>Layer 1</title>
  <rect id="svg_3" height="19.2" width="1024" y="0.75" x="0" stroke-width="0" stroke="#000" fill="#fffbfb"/>
  <rect id="svg_4" height="56" width="1024" y="7.3331" x="0" stroke-opacity="null" stroke-width="0" stroke="#000" fill="#504f48"/>
  <text xml:space="preserve" text-anchor="start" font-family="Helvetica, Arial, sans-serif" font-size="35" id="svg_6" y="49.895029" x="30.66935" stroke-opacity="null" stroke-width="0" stroke="#000" fill="#ffffff">Header 1024 x 57px      rgb(80,79,72)</text>
  <rect fill-opacity="0.6" id="svg_8" height="199.68" width="976" y="104.644118" x="23.999996" stroke-opacity="null" stroke-width="0" stroke="#000" fill="#f8f5e3"/>
  <text xml:space="preserve" text-anchor="start" font-family="Helvetica, Arial, sans-serif" font-size="35" id="svg_9" y="162.191051" x="31.097403" stroke-opacity="null" stroke-width="0" stroke="#000" fill="#000000">976 x 199.68px      rgb(248,245,227,0.6)</text>
  <text xml:space="preserve" text-anchor="start" font-family="Helvetica, Arial, sans-serif" font-size="35" id="svg_10" y="249.932925" x="30.666714" stroke-opacity="null" stroke-width="0" stroke="#000" fill="#000000">Font: Oswald-Light Size: 18pt Align: Justify rgb(0,0,0)</text>
  <rect id="svg_12" height="63.36" width="976" y="346.60137" x="23.999997" fill-opacity="0.8" stroke-opacity="null" stroke-width="0" stroke="#000" fill="#f8f5e3"/>
  <rect id="svg_14" height="64.7" width="976" y="452.269629" x="23.999997" fill-opacity="0.7" stroke-opacity="null" stroke-width="0" stroke="#000" fill="#ef1919"/>
  <rect id="svg_16" height="64.7" width="976" y="556.132477" x="24" fill-opacity="0.7" stroke-opacity="null" stroke-width="0" stroke="#000" fill="#0edb00"/>
  <rect id="svg_19" height="63.36" width="976" y="660.092422" x="23.999997" fill-opacity="0.8" stroke-opacity="null" stroke-width="0" stroke="#000" fill="#f8f5e3"/>
  <rect id="svg_21" height="8" width="976" y="304.293469" x="24" stroke-opacity="null" stroke-width="0" stroke="#000" fill="url(#svg_47)"/>
  <text xml:space="preserve" text-anchor="start" font-family="Helvetica, Arial, sans-serif" font-size="35" id="svg_23" y="391.466302" x="31.067802" stroke-opacity="null" stroke-width="0" stroke="#000" fill="#000000">976 x 63.36px      rgb(248,245,227,0.8)</text>
  <text xml:space="preserve" text-anchor="start" font-family="Helvetica, Arial, sans-serif" font-size="35" id="svg_24" y="496.695951" x="31.067802" stroke-opacity="null" stroke-width="0" stroke="#000" fill="#000000">976 x 64.7px      rgb(239,25,25,0.7)</text>
  <text xml:space="preserve" text-anchor="start" font-family="Helvetica, Arial, sans-serif" font-size="35" id="svg_25" y="598.919039" x="31.067802" stroke-opacity="null" stroke-width="0" stroke="#000" fill="#000000">976 x 64.89px      rgb(248,245,227,0.8)</text>
  <text xml:space="preserve" text-anchor="start" font-family="Helvetica, Arial, sans-serif" font-size="35" id="svg_26" y="706.153062" x="31.067802" stroke-opacity="null" stroke-width="0" stroke="#000" fill="#000000">976 x 63.36px      rgb(248,245,227,0.8)</text>
  <path id="svg_27" d="m17.844751,205.949783c0.483839,-0.30217 0.946579,-0.650589 1.354214,-0.963379l-12.214267,-0.143433l-1.67538,1.235886l-5.307634,-0.106064c0.665053,-0.562698 1.393594,-1.223877 1.933743,-1.720291l-1.921408,-1.669083l5.663125,0l1.152267,1.042908l12.470479,0l-1.546871,-1.040558c0.477385,-0.327896 1.183889,-0.765564 1.567135,-0.994919l4.194033,2.651993l-4.203571,2.693161l-1.46586,-0.986221l0,0l-0.000002,0l-0.000002,0z" stroke-opacity="null" stroke-width="0" stroke="#000" fill="#000000"/>
  <text xml:space="preserve" text-anchor="start" font-family="Helvetica, Arial, sans-serif" font-size="35" id="svg_28" y="189.610947" x="25.65171" fill-opacity="null" stroke-opacity="null" stroke-width="0" stroke="#000" fill="#000000"/>
  <text transform="rotate(89.5408, 12.0188, 236.743) matrix(0.55934, 0, 0, 0.812309, -11.3763, 54.2996)" xml:space="preserve" text-anchor="start" font-family="Helvetica, Arial, sans-serif" font-size="35" id="svg_29" y="236.764795" x="3.542159" stroke-opacity="null" stroke-width="0" stroke="#000" fill="#000000">24px</text>
  <path transform="rotate(-180, 1012.24, 204.264)" id="svg_30" d="m1018.330872,205.949783c0.483826,-0.30217 0.946594,-0.650589 1.354187,-0.963379l-12.214233,-0.143433l-1.675415,1.235886l-5.307617,-0.106064c0.665039,-0.562698 1.393616,-1.223877 1.933777,-1.720291l-1.921448,-1.669083l5.663147,0l1.152283,1.042908l12.470459,0l-1.546875,-1.040558c0.477417,-0.327896 1.183899,-0.765564 1.567139,-0.994919l4.19397,2.651993l-4.203491,2.693161l-1.465881,-0.986221l0,0z" stroke-opacity="null" stroke-width="0" stroke="#000" fill="#000000"/>
  <text transform="rotate(-90.4097, 1010.96, 235.698) matrix(0.55934, 0, 0, 0.812309, -11.3763, 54.2996)" xml:space="preserve" text-anchor="start" font-family="Helvetica, Arial, sans-serif" font-size="35" id="svg_31" y="235.531585" x="1789.345345" stroke-opacity="null" stroke-width="0" stroke="#000" fill="#000000">24px</text>
  <path transform="rotate(-89.9329, 511.992, 744.219)" id="svg_32" d="m518.079102,745.90509c0.483887,-0.302185 0.946594,-0.650574 1.354248,-0.963379l-12.214264,-0.143433l-1.675385,1.235901l-5.307648,-0.106079c0.66507,-0.562683 1.393585,-1.223877 1.933746,-1.720276l-1.921417,-1.669067l5.663147,0l1.152252,1.042908l12.470459,0l-1.546875,-1.040588c0.477417,-0.327881 1.183899,-0.765564 1.567139,-0.994934l4.194031,2.652039l-4.203552,2.693176l-1.465881,-0.986267l0,0z" stroke-opacity="null" stroke-width="0" stroke="#000" fill="#000000"/>
  <text transform="matrix(0.768742, 0, 0, 0.697398, 124.08, 231.959)" xml:space="preserve" text-anchor="start" font-family="Helvetica, Arial, sans-serif" font-size="35" id="svg_33" y="748.548602" x="522.208778" fill-opacity="null" stroke-opacity="null" stroke-width="0" stroke="#000" fill="#000000">30,72px</text>
  <path transform="rotate(-89.9329, 511.991, 640.035)" id="svg_34" d="m518.079102,641.721008c0.483887,-0.302185 0.946594,-0.650574 1.354248,-0.963379l-12.214264,-0.143433l-1.675385,1.235901l-5.307648,-0.106079c0.66507,-0.562683 1.393585,-1.223877 1.933746,-1.720276l-1.921417,-1.669067l5.663147,0l1.152252,1.042908l12.470459,0l-1.546875,-1.040588c0.477417,-0.327881 1.183899,-0.765564 1.567139,-0.994934l4.194031,2.652039l-4.203552,2.693176l-1.465881,-0.986267l0,0z" stroke-opacity="null" stroke-width="0" stroke="#000" fill="#000000"/>
  <text transform="matrix(0.661729, 0, 0, 0.75898, 178.083, 161.009)" xml:space="preserve" text-anchor="start" font-family="Helvetica, Arial, sans-serif" font-size="35" id="svg_35" y="647.497438" x="527.920868" fill-opacity="null" stroke-opacity="null" stroke-width="0" stroke="#000" fill="#000000">39.168px</text>
  <path transform="rotate(-89.9329, 511.99, 535.851)" id="svg_37" d="m518.079102,537.536926c0.483887,-0.302185 0.946594,-0.650574 1.354248,-0.963379l-12.214264,-0.143433l-1.675385,1.235901l-5.307648,-0.106079c0.66507,-0.562683 1.393585,-1.223877 1.933746,-1.720276l-1.921417,-1.669067l5.663147,0l1.152252,1.042908l12.470459,0l-1.546875,-1.040588c0.477417,-0.327881 1.183899,-0.765564 1.567139,-0.994934l4.194031,2.652039l-4.203552,2.693176l-1.465881,-0.986267l0,0z" stroke-opacity="null" stroke-width="0" stroke="#000" fill="#000000"/>
  <path transform="rotate(-89.9329, 511.99, 430.667)" id="svg_38" d="m518.079102,432.353516c0.483887,-0.302185 0.946594,-0.650543 1.354248,-0.963348l-12.214264,-0.143433l-1.675385,1.23587l-5.307648,-0.106079c0.66507,-0.562653 1.393585,-1.223846 1.933746,-1.720215l-1.921417,-1.669037l5.663147,0l1.152252,1.042877l12.470459,0l-1.546875,-1.040558c0.477417,-0.32785 1.183899,-0.765533 1.567139,-0.994904l4.194031,2.651978l-4.203552,2.693085l-1.465881,-0.986237l0,0z" stroke-opacity="null" stroke-width="0" stroke="#000" fill="#000000"/>
  <path transform="rotate(-89.9329, 511.99, 328.488)" id="svg_39" d="m518.079102,330.176086c0.483887,-0.302185 0.946594,-0.650543 1.354248,-0.963348l-12.214264,-0.143433l-1.675385,1.23587l-5.307648,-0.106079c0.66507,-0.562653 1.393585,-1.223846 1.933746,-1.720215l-1.921417,-1.669037l5.663147,0l1.152252,1.042877l12.470459,0l-1.546875,-1.040558c0.477417,-0.32785 1.183899,-0.765533 1.567139,-0.994904l4.194031,2.651978l-4.203552,2.693085l-1.465881,-0.986237l0,0z" stroke-opacity="null" stroke-width="0" stroke="#000" fill="#000000"/>
  <path transform="rotate(-89.9329, 511.991, 84.0614)" id="svg_40" d="m518.079102,85.749382c0.483887,-0.3022 0.946594,-0.650558 1.354248,-0.963356l-12.214264,-0.143448l-1.675385,1.235893l-5.307648,-0.106079c0.66507,-0.562668 1.393585,-1.223869 1.933746,-1.720238l-1.921417,-1.669052l5.663147,0l1.152252,1.042885l12.470459,0l-1.546875,-1.040565c0.477417,-0.32785 1.183899,-0.765541 1.567139,-0.994911l4.194031,2.652l-4.203552,2.693115l-1.465881,-0.986244l0,0z" stroke-opacity="null" stroke-width="0" stroke="#000" fill="#000000"/>
  <text transform="matrix(0.661729, 0, 0, 0.75898, 178.083, 161.009)" xml:space="preserve" text-anchor="start" font-family="Helvetica, Arial, sans-serif" font-size="35" id="svg_41" y="507.592267" x="527.920868" fill-opacity="null" stroke-opacity="null" stroke-width="0" stroke="#000" fill="#000000">39.168px</text>
  <text transform="matrix(0.661729, 0, 0, 0.75898, 178.083, 161.009)" xml:space="preserve" text-anchor="start" font-family="Helvetica, Arial, sans-serif" font-size="35" id="svg_42" y="370.326817" x="527.920868" fill-opacity="null" stroke-opacity="null" stroke-width="0" stroke="#000" fill="#000000">42.62px</text>
  <text transform="matrix(0.661729, 0, 0, 0.75898, 178.083, 161.009)" xml:space="preserve" text-anchor="start" font-family="Helvetica, Arial, sans-serif" font-size="35" id="svg_43" y="235.701087" x="527.920868" fill-opacity="null" stroke-opacity="null" stroke-width="0" stroke="#000" fill="#000000">42.24px</text>
  <text transform="matrix(0.661729, 0, 0, 0.75898, 178.083, 161.009)" xml:space="preserve" text-anchor="start" font-family="Helvetica, Arial, sans-serif" font-size="35" id="svg_44" y="-88.984498" x="527.920868" fill-opacity="null" stroke-opacity="null" stroke-width="0" stroke="#000" fill="#000000">41.28px</text>
 </g>
</svg>