<svg width="1024" height="768" xmlns="http://www.w3.org/2000/svg">
 <!-- Created with Method Draw - http://github.com/duopixel/Method-Draw/ -->
 <defs>
  <filter id="svg_2_blur">
   <feGaussianBlur stdDeviation="0"/>
  </filter>
 </defs>
 <g>
  <title>background</title>
  <rect x="-1" y="-1" width="1026" height="770" id="canvas_background" fill="#137241"/>
  <g id="canvasGrid" display="none">
   <rect id="svg_3" width="100%" height="100%" x="0" y="0" stroke-width="0" fill="url(#gridpattern)"/>
  </g>
 </g>
 <g>
  <title>Layer 1</title>
  <rect fill="#504f48" stroke-width="1.5" y="20.621669" width="1024" height="48" id="svg_1"/>
  <rect filter="url(#svg_2_blur)" fill="#f0ca19" stroke-width="1.5" x="73.039233" y="101.024117" width="876" height="38" id="svg_2"/>
  <path fill="#000000" stroke="null" stroke-width="1.5" stroke-opacity="null" d="m53.901791,110.022186c1.52264,-0.847946 2.978909,-1.825523 4.261799,-2.703003l-38.439209,-0.402786l-5.27254,3.467682l-16.703501,-0.297752c2.09297,-1.57885 4.38574,-3.433548 6.08563,-4.826469l-6.04682,-4.683258l17.82227,0l3.626269,2.926201l39.245462,0l-4.868103,-2.919487c1.50235,-0.920052 3.725773,-2.148056 4.931873,-2.791626l13.198921,7.440826l-13.228882,7.556084l-4.613182,-2.766418l0,0l0,0.000008l0.000011,0z" id="svg_7"/>
  <text font-weight="bold" fill="#000000" stroke="null" stroke-width="0" stroke-opacity="null" fill-opacity="null" x="-0.015028" y="121.070179" id="svg_9" font-size="24" font-family="Helvetica, Arial, sans-serif" text-anchor="start" xml:space="preserve" transform="matrix(0.514204, 0, 0, 0.472066, 16.7956, 41.3128)">73,6px</text>
  <path fill="#000000" stroke="null" stroke-width="0" stroke-opacity="null" fill-opacity="null" d="m1006.109985,110.964996c1.450012,-0.960999 2.820007,-2.068993 4.040039,-3.063995l-36.369019,-0.456001l-4.981995,3.931l-15.799011,-0.337997c1.973022,-1.790001 4.143982,-3.891991 5.75,-5.471001l-5.716003,-5.308998l16.859009,0l3.434998,3.316994l37.132019,0l-4.619995,-3.308998c1.419983,-1.043098 3.529968,-2.434998 4.669983,-3.164696l12.48999,8.4347l-12.51001,8.564995l-4.380005,-3.136002l0,0z" id="svg_10" transform="rotate(-180, 988, 105.602)"/>
  <text font-weight="bold" fill="#000000" stroke="null" stroke-width="0" stroke-opacity="null" fill-opacity="null" x="1046.216222" y="127.282876" id="svg_11" font-size="24" font-family="Helvetica, Arial, sans-serif" text-anchor="start" xml:space="preserve" transform="matrix(0.505601, 0, 0, 0.43803, 438.8, 41.386)">74,4px</text>
  <text fill="#000000" stroke="null" stroke-width="0" stroke-opacity="null" fill-opacity="null" x="351.5" y="109.074997" id="svg_12" font-size="24" font-family="Helvetica, Arial, sans-serif" text-anchor="start" xml:space="preserve" transform="matrix(9.76629, 0, 0, 1, -3081.35, 0)"/>
  <text fill="#000000" stroke="null" stroke-width="0" stroke-opacity="null" x="368.5" y="107.074997" id="svg_13" font-size="24" font-family="Helvetica, Arial, sans-serif" text-anchor="start" xml:space="preserve" transform="matrix(10.7397, 0, 0, 1, -3589.08, 0)"/>
  <text fill="#000000" stroke="null" stroke-width="0" stroke-opacity="null" x="220.5" y="127.093054" id="svg_14" font-size="24" font-family="Helvetica, Arial, sans-serif" text-anchor="start" xml:space="preserve">876x38px</text>
  <text fill="#000000" stroke="null" stroke-width="0" stroke-opacity="null" x="630.5" y="126.192151" id="svg_15" font-size="24" font-family="Helvetica, Arial, sans-serif" text-anchor="start" xml:space="preserve">rgb (240,202,25)</text>
  <path fill="#000000" stroke="null" stroke-width="1.5" stroke-opacity="null" d="m520.547607,87.417374c0.680176,-0.678436 1.328613,-1.460632 1.901978,-2.16275l-17.153717,-0.322083l-2.353638,2.774406l-7.452698,-0.238304c0.934082,-1.263153 1.957672,-2.747017 2.7146,-3.861626l-2.697449,-3.746765l7.953491,0l1.616791,2.340996l17.513367,0l-2.171753,-2.335808c0.671143,-0.736084 1.66217,-1.718452 2.201172,-2.23349l5.889282,5.953217l-5.902405,6.045586l-2.059021,-2.213379l0,0z" id="svg_16" transform="rotate(-90, 511.999, 83.6326)"/>
  <text fill="#ffffff" stroke="null" stroke-width="0" stroke-opacity="null" x="633.5" y="47.291249" id="svg_18" font-size="24" font-family="Helvetica, Arial, sans-serif" text-anchor="start" xml:space="preserve">rgb (80,79,72)</text>
  <text fill="#ffffff" stroke-width="0" x="218.5" y="48.192151" id="svg_19" font-size="24" font-family="Helvetica, Arial, sans-serif" text-anchor="start" xml:space="preserve">1024x57px</text>
  <path d="m519.798157,56.431499c1.834839,0 6.370056,0.135532 11.009155,1.834862c5.448303,1.995758 10.14801,3.50882 15.596313,5.504578c4.639099,1.699329 9.244873,1.588474 12.844055,2.752293c4.700806,1.520035 7.418152,1.303162 9.174255,1.834862c3.165955,0.958557 3.508057,2.280968 5.504578,2.752289c0.892944,0.2108 2.752319,1.834854 3.669739,1.834854c1.8349,0 2.752319,0 3.669739,0c1.834839,0 0.917419,0 0,0c-0.917419,0 -2.752319,0 -3.669739,0c-1.834839,0 -2.752258,0 -4.587158,0c-0.917419,0 -1.834839,0 -4.587158,0c-1.834839,0 -2.752258,0 -4.587158,0c-2.752258,0 -4.855835,-25.956738 -3.669678,-0.917419c1.186157,25.039322 -2.752319,0 -3.669739,0c-1.834839,0 -1.904663,-0.56636 -2.752258,-0.917435c-2.3974,-0.993019 -3.289734,-0.53743 -4.587158,-1.834862" id="svg_6" stroke-width="1.5" fill="none"/>
  <text transform="matrix(4.43701, 0, 0, 1, -2027.92, 0)" xml:space="preserve" text-anchor="start" font-family="Helvetica, Arial, sans-serif" font-size="24" id="svg_17" y="72.945243" x="576.678833" stroke-width="0" fill="none"/>
  <text font-weight="bold" xml:space="preserve" text-anchor="start" font-family="Helvetica, Arial, sans-serif" font-size="14" id="svg_20" y="85.475246" x="524.385302" fill-opacity="null" stroke-opacity="null" stroke-width="0" stroke="null" fill="#000000">28.8px</text>
  <ellipse rx="134.255819" id="svg_21" cy="127.991064" cx="66.898552" fill-opacity="null" stroke-opacity="null" stroke-width="1.5" stroke="null" fill="#f0ca19"/>
  <path id="svg_30" d="m348.940063,175.071869l7.181519,-9.174866l0,4.587555l10.408051,0l0,-4.587555l7.181519,9.174866l-7.181519,9.175537l0,-4.587189l-10.408051,0l0,4.587189l-7.181519,-9.175537z" stroke-opacity="null" stroke-width="1.5" stroke="null" fill="#000000"/>
  <path id="svg_32" d="m649.794495,173.130157l6.915588,-9.174866l0,4.587555l10.022522,0l0,-4.587555l6.915527,9.174866l-6.915527,9.175537l0,-4.587189l-10.022522,0l0,4.587189l-6.915588,-9.175537z" stroke-opacity="null" stroke-width="1.5" stroke="null" fill="#000000"/>
  <text transform="matrix(4.53371, 0, 0, 1, -2399.26, 0)" xml:space="preserve" text-anchor="start" font-family="Helvetica, Arial, sans-serif" font-size="14" id="svg_34" y="203.220352" x="897.03782" stroke-opacity="null" stroke-width="0" stroke="null" fill="#000000"/>
  <text transform="rotate(-90, 661.783, 217.93) matrix(1.15824, 0, 0, 1, -102.68, 0)" font-weight="bold" xml:space="preserve" text-anchor="start" font-family="Helvetica, Arial, sans-serif" font-size="14" id="svg_35" y="221.295195" x="644.048617" stroke-opacity="null" stroke-width="0" stroke="null" fill="#000000">24px</text>
  <path id="svg_38" d="m-204.131027,478.125c0.05304,0.000061 0.103699,0.009247 0.151672,0.024597l-0.037979,0.065674l0.269547,0l-0.067413,-0.11673l-0.067337,-0.116699l-0.035461,0.061493c-0.066437,-0.024292 -0.138077,-0.037872 -0.212982,-0.037872c-0.344772,0 -0.624237,0.279449 -0.624237,0.624237c0,0.143097 0.048676,0.274567 0.129669,0.379913l0.094925,-0.072876c-0.065506,-0.085144 -0.104904,-0.191345 -0.105118,-0.307007c0.000488,-0.278748 0.225998,-0.504303 0.504715,-0.50473l0,0zm0.494644,0.124939l-0.094925,0.072906c0.065491,0.085083 0.104889,0.191254 0.105057,0.306915c-0.000473,0.278748 -0.225998,0.504272 -0.50473,0.50473c-0.049393,-0.000061 -0.096634,-0.008087 -0.141693,-0.021515l0.035736,-0.061798l-0.269531,0l0.067352,0.116669l0.067398,0.116821l0.037582,-0.065216c0.063721,0.022186 0.131927,0.034576 0.203156,0.034607c0.344833,-0.000061 0.624252,-0.279541 0.624329,-0.624329c-0.000076,-0.143097 -0.048782,-0.274536 -0.12973,-0.379791l0,0z" stroke-opacity="null" stroke-width="1.5" stroke="null" fill="#000000"/>
  <text transform="matrix(18.7621, 0, 0, 3.25017, -5895.6, -591.983)" xml:space="preserve" text-anchor="start" font-family="Helvetica, Arial, sans-serif" font-size="14" id="svg_39" y="257.348742" x="348.004799" fill-opacity="null" stroke-opacity="null" stroke-width="0" stroke="null" fill="#000000"/>
  <text transform="matrix(13.4811, 0, 0, 2.16599, -3121.17, -230.796)" xml:space="preserve" text-anchor="start" font-family="Helvetica, Arial, sans-serif" font-size="14" id="svg_41" y="192.211188" x="239.981897" stroke-opacity="null" stroke-width="0" stroke="null" fill="#000000"/>
  <path fill="#000000" stroke="null" stroke-width="1.5" stroke-opacity="null" d="m53.901791,110.022186c1.52264,-0.847946 2.978909,-1.825523 4.261799,-2.703003l-38.439209,-0.402786l-5.27254,3.467682l-16.703501,-0.297752c2.09297,-1.57885 4.38574,-3.433548 6.08563,-4.826469l-6.04682,-4.683258l17.82227,0l3.626269,2.926201l39.245462,0l-4.868103,-2.919487c1.50235,-0.920052 3.725773,-2.148056 4.931873,-2.791626l13.198921,7.440826l-13.228882,7.556084l-4.613182,-2.766418l0,0l0,0.000008l0.000011,0z" id="svg_49"/>
  <text font-weight="bold" fill="#000000" stroke="null" stroke-width="0" stroke-opacity="null" fill-opacity="null" x="-0.015028" y="121.070179" id="svg_50" font-size="24" font-family="Helvetica, Arial, sans-serif" text-anchor="start" xml:space="preserve" transform="matrix(0.514204, 0, 0, 0.472066, 16.7956, 41.3128)">73,6px</text>
  <path fill="#000000" stroke="null" stroke-width="1.5" stroke-opacity="null" d="m53.901791,388.731567c1.52264,-0.847931 2.978909,-1.825531 4.261799,-2.703003l-38.439209,-0.402771l-5.27254,3.467651l-16.703501,-0.297729c2.09297,-1.578857 4.38574,-3.433533 6.08563,-4.826447l-6.04682,-4.683258l17.82227,0l3.626269,2.926208l39.245462,0l-4.868103,-2.919495c1.50235,-0.920044 3.725773,-2.148071 4.931873,-2.791626l13.198921,7.440826l-13.228882,7.55603l-4.613182,-2.766388l0,0l0.000011,0z" id="svg_51"/>
  <text font-weight="bold" fill="#000000" stroke="null" stroke-width="0" stroke-opacity="null" fill-opacity="null" x="-0.015028" y="711.874912" id="svg_52" font-size="24" font-family="Helvetica, Arial, sans-serif" text-anchor="start" xml:space="preserve" transform="matrix(0.514204, 0, 0, 0.472066, 16.7956, 41.3128)">73,6px</text>
  <rect id="svg_53" height="34.56" width="276" y="154.701889" x="73.739377" stroke-opacity="null" stroke-width="1.5" stroke="null" fill="#ffffff"/>
  <text font-weight="normal" transform="matrix(0.884013, 0, 0, 0.93612, 12.7082, 10.3234)" xml:space="preserve" text-anchor="start" font-family="Helvetica, Arial, sans-serif" font-size="24" id="svg_54" y="180.64502" x="142.068548" stroke-opacity="null" stroke-width="0" stroke="null" fill="#000000">276 x 34,56px</text>
  <rect id="svg_55" height="205.44" width="276" y="190.078587" x="72.992962" stroke-opacity="null" stroke-width="1.5" stroke="null" fill="#DDDDDD"/>
  <line stroke-linecap="null" stroke-linejoin="null" id="svg_57" y2="383.114243" x2="347.400202" y1="181.816929" x1="74.67481" stroke-opacity="null" stroke-width="1.5" stroke="null" fill="none"/>
  <line stroke-linecap="null" stroke-linejoin="null" id="svg_58" y2="294.153817" x2="244.154161" y1="206.492084" x1="103.895387" stroke-opacity="null" stroke-width="1.5" stroke="null" fill="none"/>
  <rect id="svg_59" height="34.56" width="276" y="395.566866" x="72.916743" stroke-opacity="null" stroke-width="1.5" stroke="null" fill="#f8f5e3"/>
  <rect fill-opacity="0.6" id="svg_60" height="122.88" width="276" y="430.288463" x="72.957255" stroke-opacity="null" stroke-width="1.5" stroke="null" fill="#f8f5e3"/>
  <rect id="svg_61" height="48" width="276" y="553.01489" x="72.973007" stroke-opacity="null" stroke-width="1.5" stroke="null" fill="#cb0727"/>
  <rect id="svg_63" height="34.56" width="276" y="615.475304" x="71.884674" stroke-opacity="null" stroke-width="1.5" stroke="null" fill="#ffffff"/>
  <rect id="svg_64" height="115.2" width="276" y="651.049965" x="72" stroke-opacity="null" stroke-width="1.5" stroke="null" fill="#999999"/>
  <text font-weight="bold" fill="#000000" stroke="null" stroke-width="0" stroke-opacity="null" fill-opacity="null" x="1155.445911" y="766.191662" id="svg_69" font-size="24" font-family="Helvetica, Arial, sans-serif" text-anchor="start" xml:space="preserve">73,6px</text>
  <rect id="svg_70" height="34.56" width="276" y="154.701889" x="373.833103" stroke-opacity="null" stroke-width="1.5" stroke="null" fill="#ffffff"/>
  <rect id="svg_72" height="205.44" width="276" y="190.078588" x="373.833115" stroke-opacity="null" stroke-width="1.5" stroke="null" fill="#DDDDDD"/>
  <line stroke-linecap="null" stroke-linejoin="null" id="svg_73" y2="408.755332" x2="767.854197" y1="207.458018" x1="495.128804" stroke-opacity="null" stroke-width="1.5" stroke="null" fill="none"/>
  <line stroke-linecap="null" stroke-linejoin="null" id="svg_74" y2="319.794906" x2="701.620881" y1="232.133173" x1="561.362108" stroke-opacity="null" stroke-width="1.5" stroke="null" fill="none"/>
  <rect id="svg_75" height="34.56" width="276" y="395.566867" x="373.833113" stroke-opacity="null" stroke-width="1.5" stroke="null" fill="#f8f5e3"/>
  <rect fill-opacity="0.6" id="svg_76" height="122.88" width="276" y="427.288464" x="373.833113" stroke-opacity="null" stroke-width="1.5" stroke="null" fill="#f8f5e3"/>
  <rect id="svg_77" height="48" width="276" y="552.014891" x="373.833118" stroke-opacity="null" stroke-width="1.5" stroke="null" fill="#cb0727"/>
  <text font-weight="normal" transform="matrix(0.884013, 0, 0, 0.93612, 12.7082, 10.3234)" xml:space="preserve" text-anchor="start" font-family="Helvetica, Arial, sans-serif" font-size="24" id="svg_81" y="179.60792" x="472.119517" stroke-opacity="null" stroke-width="0" stroke="null" fill="#000000">rgb(248,245,228)</text>
  <rect id="svg_82" height="205.44" width="276" y="189.223883" x="675.543272" stroke-opacity="null" stroke-width="1.5" stroke="null" fill="#DDDDDD"/>
  <rect id="svg_83" height="34.56" width="276" y="394.712161" x="675.54327" stroke-opacity="null" stroke-width="1.5" stroke="null" fill="#f8f5e3"/>
  <rect fill-opacity="0.6" id="svg_84" height="122.88" width="276" y="429.433758" x="675.54327" stroke-opacity="null" stroke-width="1.5" stroke="null" fill="#f8f5e3"/>
  <rect id="svg_85" height="48" width="276" y="552.160185" x="675.543275" stroke-opacity="null" stroke-width="1.5" stroke="null" fill="#cb0727"/>
  <rect id="svg_86" height="34.56" width="276" y="154.701889" x="676.397944" stroke-opacity="null" stroke-width="1.5" stroke="null" fill="#ffffff"/>
  <text font-weight="normal" transform="matrix(0.884013, 0, 0, 0.93612, 12.7082, 10.3234)" xml:space="preserve" text-anchor="start" font-family="Helvetica, Arial, sans-serif" font-size="24" id="svg_87" y="179.60792" x="827.119857" stroke-opacity="null" stroke-width="0" stroke="null" fill="#000000">276 x 34,56px</text>
  <text transform="rotate(-90, 360.927, 218.553) matrix(1.15824, 0, 0, 1, -102.68, 0)" font-weight="bold" xml:space="preserve" text-anchor="start" font-family="Helvetica, Arial, sans-serif" font-size="14" id="svg_89" y="221.917603" x="384.296359" stroke-opacity="null" stroke-width="0" stroke="null" fill="#000000">24px</text>
  <rect id="svg_90" height="34.56" width="276" y="616.344871" x="375.493682" stroke-opacity="null" stroke-width="1.5" stroke="null" fill="#ffffff"/>
  <rect id="svg_91" height="115.2" width="276" y="650.919531" x="375.609009" stroke-opacity="null" stroke-width="1.5" stroke="null" fill="#999999"/>
  <rect id="svg_92" height="34.56" width="276" y="615.692701" x="675.943109" stroke-opacity="null" stroke-width="1.5" stroke="null" fill="#ffffff"/>
  <rect id="svg_93" height="115.2" width="276" y="651.267362" x="676.087585" stroke-opacity="null" stroke-width="1.5" stroke="null" fill="#999999"/>
  <text font-weight="normal" transform="matrix(0.884013, 0, 0, 0.93612, 12.7082, 10.3234)" xml:space="preserve" text-anchor="start" font-family="Helvetica, Arial, sans-serif" font-size="24" id="svg_96" y="674.304636" x="486.956063" stroke-opacity="null" stroke-width="0" stroke="null" fill="#000000">276 x 34,56px</text>
  <text font-weight="normal" transform="matrix(0.884013, 0, 0, 0.93612, 12.7082, 10.3234)" xml:space="preserve" text-anchor="start" font-family="Helvetica, Arial, sans-serif" font-size="24" id="svg_97" y="676.378862" x="826.309302" stroke-opacity="null" stroke-width="0" stroke="null" fill="#000000">276 x 34,56px</text>
  <text font-weight="normal" transform="matrix(0.884013, 0, 0, 0.93612, 12.7082, 10.3234)" xml:space="preserve" text-anchor="start" font-family="Helvetica, Arial, sans-serif" font-size="24" id="svg_99" y="528.07355" x="445.947444" stroke-opacity="null" stroke-width="0" stroke="null" fill="#000000">rgb(248,245,227,0,60)</text>
  <text font-weight="normal" transform="matrix(0.884013, 0, 0, 0.93612, 12.7082, 10.3234)" xml:space="preserve" text-anchor="start" font-family="Helvetica, Arial, sans-serif" font-size="24" id="svg_100" y="438.882944" x="472.632917" stroke-opacity="null" stroke-width="0" stroke="null" fill="#000000">rgb(248,245,228)</text>
  <text font-weight="normal" transform="matrix(0.884013, 0, 0, 0.93612, 12.7082, 10.3234)" xml:space="preserve" text-anchor="start" font-family="Helvetica, Arial, sans-serif" font-size="24" id="svg_101" y="614.152857" x="492.653711" stroke-opacity="null" stroke-width="0" stroke="null" fill="#000000">rgb(203,7,39)</text>
  <path id="svg_102" d="m650.76532,643.021606l6.915588,-9.174866l0,4.587585l10.022522,0l0,-4.587585l6.915527,9.174866l-6.915527,9.175537l0,-4.587158l-10.022522,0l0,4.587158l-6.915588,-9.175537z" stroke-opacity="null" stroke-width="1.5" stroke="null" fill="#000000"/>
  <text transform="rotate(-90, 662.762, 683.938) matrix(1.15824, 0, 0, 1, -102.68, 0)" font-weight="bold" xml:space="preserve" text-anchor="start" font-family="Helvetica, Arial, sans-serif" font-size="14" id="svg_103" y="687.303262" x="644.886829" stroke-opacity="null" stroke-width="0" stroke="null" fill="#000000">24px</text>
  <path id="svg_104" d="m347.860077,639.138184l6.915588,-9.174866l0,4.587585l10.022522,0l0,-4.587585l6.915527,9.174866l-6.915527,9.175537l0,-4.587158l-10.022522,0l0,4.587158l-6.915588,-9.175537z" stroke-opacity="null" stroke-width="1.5" stroke="null" fill="#000000"/>
  <text transform="rotate(-90, 359.832, 680.067) matrix(1.15824, 0, 0, 1, -102.68, 0)" font-weight="bold" xml:space="preserve" text-anchor="start" font-family="Helvetica, Arial, sans-serif" font-size="14" id="svg_105" y="683.419862" x="383.364811" stroke-opacity="null" stroke-width="0" stroke="null" fill="#000000">24px</text>
  <path id="svg_106" d="m26.68784,523.309204c0.05303,0.000061 0.103691,0.009277 0.15167,0.024597l-0.03797,0.065674l0.269529,0l-0.0674,-0.11676l-0.06735,-0.116638l-0.03545,0.061462c-0.066439,-0.024292 -0.138069,-0.037903 -0.21298,-0.037903c-0.34478,0 -0.624239,0.27948 -0.624239,0.624268c0,0.143127 0.04867,0.274597 0.129669,0.379883l0.094921,-0.072876c-0.06551,-0.085083 -0.1049,-0.191345 -0.10511,-0.306946c0.000481,-0.278748 0.226,-0.504333 0.504709,-0.504761l0,0l0,0zm0.49464,0.124939l-0.094919,0.072876c0.0655,0.085144 0.104879,0.191284 0.105059,0.306946c-0.000479,0.278748 -0.226,0.504272 -0.50473,0.504761c-0.049389,-0.000061 -0.096649,-0.008118 -0.141689,-0.021545l0.03573,-0.061768l-0.269529,0l0.067348,0.116638l0.0674,0.116821l0.037571,-0.065186c0.06373,0.022156 0.131939,0.034546 0.203169,0.034607c0.344831,-0.000122 0.624241,-0.279541 0.624321,-0.624329c-0.00008,-0.143127 -0.04878,-0.274536 -0.12973,-0.379822l0,0z" stroke-opacity="null" stroke-width="1.5" stroke="null" fill="#f8f5e3"/>
  <path fill="#000000" stroke="null" stroke-width="0" stroke-opacity="null" fill-opacity="null" d="m984.756042,392.511871c1.444092,-0.96109 2.819824,-2.069 4.033203,-3.063812l-36.367188,-0.456543l-4.981689,3.930725l-15.799561,-0.337463c1.973877,-1.789612 4.144287,-3.89209 5.750732,-5.471069l-5.716553,-5.308899l16.859131,0l3.435059,3.316956l37.127686,0l-4.614258,-3.309174c1.418457,-1.04306 3.529053,-2.434998 4.665527,-3.164703l12.492676,8.434692l-12.509766,8.56543l-4.375,-3.136139l0,0z" id="svg_107" transform="rotate(-180, 988, 106.573)"/>
  <path fill="#000000" stroke="null" stroke-width="0" stroke-opacity="null" fill-opacity="null" d="m1006.109985,399.307495c1.450012,-0.960999 2.820007,-2.069 4.040039,-3.063995l-36.369019,-0.455994l-4.981995,3.931l-15.799011,-0.338013c1.973022,-1.790009 4.143982,-3.891998 5.75,-5.470978l-5.716003,-5.309021l16.859009,0l3.434998,3.317017l37.132019,0l-4.619995,-3.309021c1.419983,-1.043091 3.529968,-2.434998 4.669983,-3.164673l12.48999,8.434692l-12.51001,8.565002l-4.380005,-3.136017l0,0z" id="svg_108" transform="rotate(-180, 988, 393.944)"/>
  <text font-weight="bold" fill="#000000" stroke="null" stroke-width="0" stroke-opacity="null" fill-opacity="null" x="1050.056603" y="774.471964" id="svg_109" font-size="24" font-family="Helvetica, Arial, sans-serif" text-anchor="start" xml:space="preserve" transform="matrix(0.505601, 0, 0, 0.43803, 438.8, 41.386)">74,4px</text>
  <text fill="#000000" stroke="null" stroke-width="0" stroke-opacity="null" fill-opacity="null" x="141.991669" y="422.449997" id="svg_8" font-size="24" font-family="Helvetica, Arial, sans-serif" text-anchor="start" xml:space="preserve">276 x 34.56 px</text>
  <text fill="#000000" stroke="null" stroke-width="0" stroke-opacity="null" fill-opacity="null" x="141.991669" y="495.449997" id="svg_24" font-size="24" font-family="Helvetica, Arial, sans-serif" text-anchor="start" xml:space="preserve">276 x 122.88px</text>
  <text fill="#000000" stroke="null" stroke-width="0" stroke-opacity="null" fill-opacity="null" x="141.991669" y="495.449997" id="svg_25" font-size="24" font-family="Helvetica, Arial, sans-serif" text-anchor="start" xml:space="preserve">276 x 122.88px</text>
  <text fill="#000000" stroke="null" stroke-width="0" stroke-opacity="null" fill-opacity="null" x="142.991669" y="585.449997" id="svg_26" font-size="24" font-family="Helvetica, Arial, sans-serif" text-anchor="start" xml:space="preserve">276 x 48px</text>
  <text fill="#000000" stroke="null" stroke-width="0" stroke-opacity="null" fill-opacity="null" x="142.991669" y="640.449997" id="svg_27" font-size="24" font-family="Helvetica, Arial, sans-serif" text-anchor="start" xml:space="preserve">276 x 34,56px</text>
  <text fill="#000000" stroke="null" stroke-width="0" stroke-opacity="null" fill-opacity="null" x="142.991669" y="708.449997" id="svg_28" font-size="24" font-family="Helvetica, Arial, sans-serif" text-anchor="start" xml:space="preserve">276 x 34,56px</text>
  <text font-weight="normal" transform="matrix(0.884013, 0, 0, 0.93612, 12.7082, 10.3234)" xml:space="preserve" text-anchor="start" font-family="Helvetica, Arial, sans-serif" font-size="24" id="svg_29" y="292.810125" x="142.068548" stroke-opacity="null" stroke-width="0" stroke="null" fill="#000000">276 x 204.48px</text>
  <path transform="rotate(89.5333, 301.3, 608.683)" id="svg_4" d="m293.87265,608.682983l4.306427,-3.674377l0,1.83728l6.241119,0l0,-1.83728l4.306396,3.674377l-4.306396,3.674683l0,-1.837097l-6.241119,0l0,1.837097l-4.306427,-3.674683z" stroke-opacity="null" stroke-width="1.5" stroke="null" fill="#000000"/>
  <text font-weight="bold" transform="matrix(0.383803, 0, 0, 0.338673, 188.728, 406.826)" xml:space="preserve" text-anchor="start" font-family="Helvetica, Arial, sans-serif" font-size="35" id="svg_5" y="607" x="309" fill-opacity="null" stroke-opacity="null" stroke-width="0" stroke="null" fill="#000000">14.4px</text>
 </g>
</svg>